<?xml version="1.0" encoding="utf-8"?>
<!-- Generator: Adobe Illustrator 19.0.0, SVG Export Plug-In . SVG Version: 6.00 Build 0)  -->
<svg version="1.1" id="Layer_1" xmlns="http://www.w3.org/2000/svg" xmlns:xlink="http://www.w3.org/1999/xlink" x="0px" y="0px"
	 viewBox="849 -77 2658 713" style="enable-background:new 849 -77 2658 713;" xml:space="preserve">
<path d="M2343.7,22.7c0.7,0,2,0,2.7,0c0,78.6,0,157.2,0,235.7c-0.3,1.4,0.5,3.3,2.2,3.1c7.7,0.1,15.4,0,23.1-0.1
	c0,10.2-0.1,20.5,0.1,30.7c-0.1,4.3,3.4,7.2,6.2,9.8c0,15,0,29.9,0,44.8c0,3.5-0.5,7.3,1.3,10.5c10.4-0.1,20.8,0,31.3,0
	c0.1-23-0.2-46,0.1-69c0.3-0.4,1-1.1,1.4-1.4c3.7-0.4,7.4,0,11.1-0.1c0.1-3.7-0.2-7.4,0.1-11.1c0.3-0.3,1-1,1.4-1.4
	c6.5,0.1,13.4-1.1,19.7,0.8c0.5-0.3,1.5-0.9,2-1.2c-0.2-5.2-0.1-10.4-0.1-15.6c5.1-0.1,10.2,0.2,15.3-0.1c3-2.4,0.9-7,1.5-10.4
	c7.2,0.3,14.6-0.6,21.7,0.4c7.6,6.9,14.5,14.6,22,21.7c3.3,0.1,6.7,0,10.1-0.3c0,29.2,0,58.4,0,87.6c8.6,0,17.3,0,25.9,0
	c0.3-0.7,1-2.1,1.4-2.8c0.1-22.9,0-45.8,0.1-68.8c4.2,0,8.4,0,12.6,0c0.5-3-1.4-7.3,1.5-9.4c6.9-0.4,13.8,0,20.7-0.1
	c0.4,3.6-1.1,7.6,0.6,10.9c3.2,1.7,7.3,0.3,10.9,0.7c0,12.8-0.1,25.5,0.1,38.3c1.7-0.7,3.3-1.7,4.4-3.2c2.6-3.5,6.3-5.9,9.2-9.2
	c0-12.8,0-25.6,0-38.4c-0.3-11.2,0.5-22.5-0.4-33.7c7.3,0.2,14.6-0.3,21.9,0.2c3.5,1.3,5.1,5.3,8,7.5c0.1,12.9,0,25.7,0.1,38.6
	c3.9,3.1,7.1,6.9,10.7,10.3c1.6,1.4,2,3.5,1.9,5.5c0,17.9,0,35.8,0,53.7c8.8,0,17.5,0,26.3,0c0-44.2,0-88.4,0-132.6
	c10.9,0,21.7,0,32.6,0c0.1,19.2-0.2,38.3,0.1,57.5c0.3,0.3,1,1,1.3,1.3c4.8,0.4,9.6,0,14.4,0.1c0,8.9-0.1,17.8,0,26.7
	c0.3,0.7,1,1.9,1.4,2.6c3.6,1.8,5.2,5.8,8.6,7.9c1.2,1.7,2.7,3.3,4.2,4.9c3.9,0,7.7,0,11.6,0c2.9-3,5.9-6,8.9-8.8
	c0-10.4,0-20.8,0-31.1c9.4,0,18.8,0,28.3,0c0,6.9-0.1,13.7,0.1,20.6c3.6,3.3,6.9,6.8,10.3,10.2c2.1,2.2,4.7,4.1,6,7
	c0.7,0.1,2,0.2,2.6,0.3c0.2,4.7-0.2,9.4,0.2,14.1c0.3,0.3,1,1,1.3,1.3c12.2,0.3,24.4,0,36.6,0.1c0.1-16-0.1-32,0-47.9
	c0.3-0.3,1-1,1.3-1.4c9.6-0.3,19.3,0,29-0.1c0-11.6,0-23.1,0-34.7c13.7,0,27.4,0,41,0c0,18.6,0,37.2,0,55.8c7.7,0,15.4,0,23.2,0
	c0-5.5,0-10.9,0-16.4c2.3-2.1,5-3.7,6.7-6.4c0.7-0.9,1.2-2.5,2.6-2.3c7.6-0.4,15.2,0,22.8-0.1c3.1-3.2,6.4-6.2,9.4-9.5
	c7.9,0,15.8,0,23.7,0c0,18.6,0,37.2,0,55.8c7.7,0,15.4,0,23.1,0c0.1-16.4-0.2-32.9,0.1-49.3c0.3-0.2,1-0.6,1.3-0.8
	c6.2-0.5,12.4,0.6,18.6-0.3c0-4.3-0.6-8.7,0.9-12.8c7.7,0.2,15.5-0.1,23.2,0.1c1.5-0.1,2.4,1.7,2.2,3c0,20,0,40,0,60.1
	c7,0,14,0,21,0c1.3,0.2,3.4-0.4,3.2-2.1c0.2-8.7-0.2-17.5,0.1-26.2c1.1-4.2,4.9-6.7,7.2-10.1c0.1-20.9,0-41.7,0-62.6
	c9.1,0,18.2,0,27.4,0c0,19,0.1,37.9-0.1,56.9c7.5,1.2,15.2-0.4,22.7,0.5c4.6,1.8,7.4,6.2,11,9.3c0,16.3,0,32.7,0,49
	c4.9,0,9.8,0,14.7,0c0-31.6,0-63.1,0-94.7c11.2,0,22.5-0.1,33.7,0c1.7-0.2,2.1,1.9,2,3.1c0,15.8-0.1,31.6,0.1,47.4
	c6.3,0,12.6,0,19,0c0,18.2,0,36.5,0,54.7c16.8,0,33.7-0.1,50.5,0.1c1.2-4.1,0.5-8.5,0.8-12.7c0.5-20.7,0.3-41.4-0.4-62.1
	c-0.3-26.2-0.3-52.5-0.2-78.7c4.8-0.3,9.6-0.2,14.5-0.2c0-3.5,0-7,0-10.5c4.9,0,9.8,0.1,14.7,0c0,2.8,0,5.6,0,8.4c3.1,0,6.3,0,9.5,0
	c0,26.3,0,52.6,0,78.9c8.4,0,16.8,0,25.3,0c0-7.2,0-14.4,0-21.6c3-2.9,6-5.9,8.9-8.9c6.5,0,13,0,19.5,0c0,28.5-0.1,57.1,0.1,85.6
	c0.3,0.7,1,2.1,1.4,2.8c2.6-0.4,6.2,1.2,7.9-1.5c0.5-4.8-0.3-9.6,0.3-14.3c3-4.3,7.3-7.5,10.8-11.5c3.7-0.1,7.4-0.1,11.1,0
	c0-24.2,0-48.4,0-72.6c-0.3-2.6,1.2-4.9,3.1-6.5c3.5-3.1,6.4-6.9,10.2-9.7c1.2-1.6,2.1-4.2,4.5-3.8c6.7-0.1,13.4,0,20.1,0
	c0,45.4-0.1,90.8,0.1,136.1c0.3,0.7,1,2.1,1.4,2.8c10.4,0,20.8,0,31.2,0c0-23.9,0-47.7,0-71.6c9.8,0,19.6,0,29.5,0v360.9H849V357.3
	c3.2,0,6.3,0,9.5,0c0.1-27.3-0.1-54.7,0.1-82c3.1-0.1,6.3-0.1,9.4-0.1c0-1.9,0-3.8,0.1-5.6c0.3-0.7,1-2.1,1.4-2.8c5.5,0,11,0,16.4,0
	c0,26.3,0,52.6,0,78.9c0,3.9-0.4,7.8,0.8,11.6c4.5-0.2,9,0.2,13.4-0.2c0.3-0.3,1-1,1.4-1.4c0.3-23.3,0-46.7,0.1-70
	c7.4,0,14.7,0,22.1,0c0-23.9,0-47.7,0-71.6c3.4,0,6.7,0.2,10.1-0.1c3-2.4,0.9-7.1,1.5-10.4c8,0,16.1-0.1,24.1,0.1
	c0.1,3.1,0.1,6.2,0.1,9.4c2.5,0,5,0,7.4,0c0,35.8,0,71.6,0,107.3c0,1.9,0.3,3.8,0.6,5.7c12.4-0.3,24.9,0.2,37.3-0.3
	c0.1,9.9-0.2,19.9,0.1,29.8c0.3,0.4,1,1.1,1.4,1.4c9,0.3,17.9,0,26.9,0.1c0.2-25.8-0.3-51.6,0.2-77.3c1.7-0.1,3.4-0.2,5-0.3
	c0.1-3.5-0.2-6.9,0.1-10.4c2.3-2.9,6.8-1,10-1.5c0.5-3.9,0.4-7.7,0.3-11.6c7.3,0,14.6,0,21.9,0c2.1,3.9,1.2,8.4,1.3,12.6
	c2.1,0,4.2,0,6.3,0c0,29.5,0,58.9,0,88.4c15.8,0,31.6,0,47.4,0c0-4.2,0-8.4,0-12.6c3.7-0.7,8.7,1.6,11.4-1.5
	c0.2-24.7,0.2-49.5,0-74.3c7.9,0,15.8,0,23.7,0c4.7-2.4,7.8-6.8,11.5-10.4c7.9-0.2,15.9-0.1,23.8-0.1c0.1,15-0.1,30.1,0.1,45.2
	c6.3,0.1,12.6,0.1,18.8,0.1c0-13.3,0-26.6,0-40c5.6,0,11.2,0,16.8,0c0-2.8,0-5.6,0-8.4c9.1-1,18.3-0.7,27.4-0.1
	c0.1,4.1-0.3,8.2,0.1,12.3c2.6,3.1,7.7,0.8,11.3,1.6c0.2,5.6,0.1,11.2,0.1,16.7c3.9,0,7.7,0,11.6,0c0,13.7,0,27.4,0,41
	c3,0,6-0.2,9,0.1c2.1,0.9,1.5,3.3,1.5,5.1c-1,8.4,0.5,16.8,0,25.3c7.9-0.1,15.8,0.2,23.8-0.1c2-0.9,1.4-3.3,1.5-5.1
	c-0.2-4.6,0.5-9.3-0.7-13.8c4.1,0.1,8.2,0,12.2,0c0-55.8,0-111.6,0-167.4c3.5-0.6,7.1-0.5,10.6-0.9c0.1-4.1-0.3-8.2,0.1-12.3
	c0.7-1.7,2.6-1.6,4.1-1.5c14.4,0.1,28.8,0,43.2,0.1c0,56.1,0,112.2,0,168.3c11.9,0,23.8,0,35.8,0c0-11.2,0-22.5,0-33.7
	c-0.1-1.8,0.4-3.5,1.1-5.1c8.1,0.3,16.2,0.3,24.2,0c0-23.6,0-47.1,0-70.7c0.1-2.7-0.5-5.5,0.9-8c0.1-0.5,0.2-1.5,0.3-2
	c2.4-3.5,6.1-5.7,8.8-9c10.5,0,21-0.1,31.5,0.1c1.1,0.9,2.2,1.7,3.3,2.5c1.8,2.5,4,4.7,6.2,6.9c4.4,0,8.8,0,13.2,0
	c0,19.6,0,39.3,0,58.9c2.2,0,4.4,0,6.6,0c0.5,2.1,0.9,4.2,0.8,6.3c-0.1,10.9,0,21.7,0,32.6c6.3,0,12.7,0,19,0
	c1.8,0.1,3.5-0.6,5.2-1.2c-0.1-69.8,0-139.6-0.1-209.3c-0.5-3.2,2.7-5,4.5-7c12.3-12.2,24.5-24.6,36.8-36.8c1.1-1.4,2.9-1.3,4.4-1.5
	c0.2,7.8,0.9,15.7-0.2,23.5c0.2,0.5,0.7,1.5,0.9,1.9c10.8,0,21.6,0,32.4,0c0,46,0,91.9,0,137.9c-0.2,1.4,0.6,3.1,2.2,3.1
	c5.6,0.2,11.2,0,16.8,0c0-15.8-0.1-31.6,0-47.5c-0.2-3.1,2.7-4.9,4.7-6.7c2.5-2.6,5-5.2,7.3-7.9c12.8,0,25.7,0,38.5,0
	c0,51.6,0,103.1,0,154.7c7.7,0,15.5,0,23.2,0c0,16.3-0.2,32.7,0.1,49c0.3,0.4,1,1.1,1.4,1.4c11.1,0.3,22.1,0,33.2,0.1
	c0-8.4,0-16.8,0-25.2c4.1,0,8.1,0,12.2,0c0.9-2,3-3.1,4-5.1c0.3-0.1,1-0.2,1.3-0.3c0.7-1.3,1.4-2.9,3.2-2.9c5.4-0.4,10.8,0,16.2-0.2
	c0-23.5,0-47,0-70.4c0.1-2.7-0.6-5.7,0.9-8.1c0.1-1.4,0.1-2.8,0.2-4.2c1.5-0.7,2.5-2,3.7-3c1.2-1.6,2.6-3,4.2-4.2
	c1.5-2,3.6-3.4,5.1-5.4c1.1-1,2.2-2,3.3-3c1.1-1.3,2.4-2.5,3.8-3.7c12.8-0.1,25.5-0.2,38.3,0c0.4,0.3,1.1,1,1.4,1.4
	c0.5,4.2-0.2,8.5,0.3,12.8c0.3,0.3,1,1,1.4,1.4c9.3,0.3,18.6,0,27.9,0.1c0,39,0,78.1,0,117.1c1.5-0.2,3.2-0.1,3.5-2
	c1.7-1.1,3.1-2.6,4.3-4.2c2.8-2.1,5.1-4.7,7.5-7.3c1.3-1.5,2.7-2.9,4.2-4.2c1.1-1.7,3.5-2.6,3.5-4.9c0.3-8.4,0-16.8,0.1-25.2
	c3.9,0,7.8,0,11.6,0c0.2-1.4,0.4-2.8,0.5-4.3c-0.2-10.2,1.1-20.3,0.3-30.4c-0.7-7.3,0-14.7-0.5-22c0.2-0.6,0.7-1.7,0.9-2.3
	c3.1,0.1,6.2,0.1,9.3,0.1c0-3.5,0-6.9,0-10.4c7.7-0.2,15.4-0.1,23.1-0.1c0,3.5,0,6.9,0,10.4c4.8,0.1,9.5,0.1,14.3,0
	c0.4,0.7,1.1,2.1,1.4,2.8c0.1,3.5,0.1,6.9,0,10.4c1.3,1.4,2.5,2.8,3.6,4.3c3.8,2.5,5.8,7.2,10,9.2c2.9,6-0.8,13.2,2.4,19.1
	c6.1,6.8,13,12.9,19.2,19.5c6.1,0.9,12.3,0.2,18.4,0.3c5.3-0.1,10.6,0.3,15.8-0.2c0-6.7,0-13.4,0-20.2c3.5,0,7,0,10.6,0
	c0-2.7-0.3-5.4-0.6-8c1.2-1.9,3.9-0.8,5.9-1.1c4.2,0.5,8.7-1,12.7,0.8c-0.2,9.4-0.1,18.9-0.1,28.3c7.7,0,15.4,0,23.1,0
	c0-20.3,0-40.7,0-61c3.5,0,7,0,10.5,0c0-3.9,0-7.7,0-11.6c7.7,0,15.4,0,23.1,0c0,3.9,0,7.7,0,11.6c3.1,0,6.3,0,9.4,0
	c0,34.5,0.1,69,0,103.5c5-5,10.2-9.8,15-15c2.5-3,5.3-5.8,8.8-7.6c3.5-0.6,8.3,1.6,10.8-1.5c0.4-6.1-0.1-12.3,0.2-18.4
	c4.2-0.1,8.4-0.1,12.5-0.1c0-30.5,0-61,0-91.6c2.7-0.4,6.3,1.1,8.3-1.1c0.3-5.6,0-11.2,0.1-16.8c0-1.4-0.3-3.4,1.5-4
	c1.6-0.3,3.2-0.2,4.9-0.2c0.2-7.6,0.1-15.1,0.2-22.7c0.6-0.4,1.9-1.1,2.6-1.4c5.4-0.1,10.8-0.1,16.2-0.1c1.4-0.2,3.1,0.6,3.1,2.2
	c0.2,7,0,14,0,21c2.1,0,4.2,0,6.3,0c0,8.1,0,16.1,0,24.2c3.1,0,6.2,0,9.4,0.1c0.2,6.3,0.1,12.5,0.1,18.8c2.7,0,5.5,0,8.2,0
	c1.8,5.1,1.2,10.5,1.3,15.8c0,20.5,0,41.1,0,61.6c12.3,12.5,24.9,24.9,37.3,37.3c4.4,0,8.8,0,13.2,0c0-17.5,0-35,0-52.5
	c0.1-4.8-0.6-9.7,1.2-14.3c1.4-2,3.1-3.7,5.1-5.1c0-70.2,0-140.4,0-210.6C2309.8,56.7,2326.7,39.7,2343.7,22.7z"/>
</svg>
